<?xml version="1.0" encoding="utf-8"?>
<!-- Generator: Adobe Illustrator 26.0.3, SVG Export Plug-In . SVG Version: 6.00 Build 0)  -->
<svg version="1.1" id="Warstwa_1" xmlns="http://www.w3.org/2000/svg" xmlns:xlink="http://www.w3.org/1999/xlink" x="0px" y="0px"
	 viewBox="0 0 40 40" style="enable-background:new 0 0 40 40;" xml:space="preserve">
<style type="text/css">
	.st0{fill:#868686;}
	.st1{fill:#599D33;}
	.st2{fill:url(#SVGID_1_);}
	.st3{fill:url(#SVGID_00000109728750077137226580000004299169694243486598_);}
</style>
<path class="st0" d="M0.1,35.7c0-1.5,0.9-2.4,2.7-2.4c1.4,0,2.2,0.6,2.6,1.7c0,0.1,0,0.2-0.1,0.2l-0.2,0.1c-0.1,0-0.2,0-0.2-0.1
	c-0.3-1-0.9-1.4-2.1-1.4c-1.4,0-2.1,0.7-2.1,1.9v1.9c0,1.2,0.8,1.9,2.1,1.9c1.2,0,1.8-0.5,2.1-1.5c0-0.1,0.1-0.1,0.2-0.1L5.3,38
	c0.1,0,0.1,0.1,0.1,0.2C5,39.4,4.1,40,2.8,40c-1.7,0-2.6-0.9-2.6-2.4V35.7z"/>
<path class="st0" d="M5.9,35.4c0-1.3,1-2.2,2.7-2.2c1.6,0,2.7,0.8,2.7,2.2v2.4c0,1.3-1,2.2-2.7,2.2c-1.6,0-2.7-0.8-2.7-2.2V35.4z
	 M10.7,35.4c0-1-0.8-1.7-2.1-1.7c-1.3,0-2.1,0.7-2.1,1.7v2.4c0,1,0.8,1.7,2.1,1.7c1.3,0,2.1-0.6,2.1-1.7V35.4z"/>
<path class="st0" d="M18.4,33.2c1.5,0,2.2,0.8,2.2,2.3v4.1c0,0.1,0,0.1-0.1,0.1h-0.2c-0.1,0-0.1,0-0.1-0.1v-4.1
	c0-1.3-0.5-1.8-1.7-1.8c-0.7,0-1.3,0.2-1.9,0.5c0.2,0.3,0.3,0.8,0.3,1.3v4.1c0,0.1,0,0.1-0.1,0.1h-0.2c-0.1,0-0.1,0-0.1-0.1v-4.1
	c0-1.2-0.6-1.8-1.8-1.8c-0.5,0-1,0.1-1.5,0.3c-0.2,0.1-0.3,0.2-0.3,0.4v5.2c0,0.1,0,0.1-0.1,0.1h-0.2c-0.1,0-0.1,0-0.1-0.1v-5.3
	c0-0.4,0.1-0.5,0.5-0.7c0.6-0.3,1.2-0.4,1.8-0.4c0.7,0,1.3,0.2,1.7,0.6C16.8,33.4,17.6,33.2,18.4,33.2z"/>
<path class="st1" d="M27,30.6c0.2,0,0.3,0.1,0.3,0.3v0.4c0,0.2-0.1,0.3-0.3,0.3h-2.1c-1.2,0-1.6,0.4-1.6,1.5v0.2H27
	c0.2,0,0.3,0.1,0.3,0.3v5.8c0,0.2-0.1,0.3-0.3,0.3h-0.5c-0.2,0-0.3-0.1-0.3-0.3v-5.1h-2.9v5.1c0,0.2-0.1,0.3-0.3,0.3h-0.5
	c-0.2,0-0.3-0.1-0.3-0.3v-5.1h-0.9c-0.2,0-0.3-0.1-0.3-0.3v-0.4c0-0.2,0.1-0.3,0.3-0.3h0.9v-0.2c0-1.8,0.8-2.6,2.7-2.6H27z"/>
<path class="st1" d="M31,33.2c1.7,0,2.5,0.8,2.5,2.5v3.8c0,0.2-0.1,0.3-0.3,0.3h-0.5c-0.2,0-0.3-0.1-0.3-0.3v-3.8
	c0-1-0.5-1.5-1.6-1.5c-0.5,0-1,0.1-1.4,0.2c-0.1,0-0.1,0.1-0.1,0.2v4.8c0,0.2-0.1,0.3-0.3,0.3h-0.5c-0.2,0-0.3-0.1-0.3-0.3v-5.2
	c0-0.4,0.1-0.5,0.5-0.7C29.3,33.3,30.1,33.2,31,33.2z"/>
<path class="st1" d="M34.2,35.6c0-1.5,1-2.4,2.8-2.4c1.8,0,2.8,0.9,2.8,2.4v2c0,1.5-1,2.4-2.8,2.4c-1.7,0-2.8-0.9-2.8-2.4V35.6z
	 M38.7,35.6c0-0.9-0.6-1.4-1.7-1.4c-1,0-1.7,0.5-1.7,1.4v2c0,0.9,0.6,1.4,1.7,1.4c1.1,0,1.7-0.5,1.7-1.4V35.6z"/>
<g>
	
		<linearGradient id="SVGID_1_" gradientUnits="userSpaceOnUse" x1="29.3933" y1="40.4194" x2="15.061" y2="18.6693" gradientTransform="matrix(1 0 0 1 -0.8883 -8.885)">
		<stop  offset="0" style="stop-color:#DDDB00"/>
		<stop  offset="0.2151" style="stop-color:#93C01F"/>
		<stop  offset="1" style="stop-color:#00663A"/>
	</linearGradient>
	<path class="st2" d="M30.5,19.5c0.7,0,1.1,0.5,0.7,1.2l-3.3,6.6c-0.2,0.5-0.9,0.9-1.4,0.9h-3.9c-2.5,0-4.9-0.7-7-1.9
		c-2.8-1.8-4.5-4.6-4.5-7.7c0-5.4,5-9.8,11.5-9.8c-3,0-5.4,2.4-5.4,5.4c0,3,2.4,5.4,5.4,5.4H30.5z"/>
	
		<linearGradient id="SVGID_00000045617398146514175390000009381957601457646989_" gradientUnits="userSpaceOnUse" x1="12.9379" y1="26.3504" x2="41.1597" y2="-3.2451" gradientTransform="matrix(1 0 0 1 -0.8883 -8.885)">
		<stop  offset="0" style="stop-color:#DDDB00"/>
		<stop  offset="0.2151" style="stop-color:#93C01F"/>
		<stop  offset="0.4162" style="stop-color:#599D33"/>
		<stop  offset="1" style="stop-color:#599D33"/>
	</linearGradient>
	<path style="fill:url(#SVGID_00000045617398146514175390000009381957601457646989_);" d="M8.7,14.1c0-7.7,6.3-14,14-14h7.8
		c0.7,0,1.1,0.5,0.7,1.2l-3.3,6.6c-0.2,0.5-0.9,0.9-1.4,0.9h-3.9c-6.6,0-11.5,4.4-11.5,9.8c0,3.1,1.8,5.9,4.5,7.7
		C11.5,23.8,8.7,19.3,8.7,14.1z"/>
</g>
</svg>
