<?xml version="1.0" encoding="UTF-8" standalone="no"?>
<!-- Generator: Adobe Illustrator 26.0.1, SVG Export Plug-In . SVG Version: 6.00 Build 0)  -->

<svg
   version="1.1"
   id="Warstwa_1"
   x="0px"
   y="0px"
   viewBox="0 0 95 21.315681"
   xml:space="preserve"
   sodipodi:docname="logo.svg"
   inkscape:version="1.1.1 (50ffc5b540, 2022-01-11)"
   width="95"
   height="21.315681"
   xmlns:inkscape="http://www.inkscape.org/namespaces/inkscape"
   xmlns:sodipodi="http://sodipodi.sourceforge.net/DTD/sodipodi-0.dtd"
   xmlns="http://www.w3.org/2000/svg"
   xmlns:svg="http://www.w3.org/2000/svg"><defs
   id="defs43" /><sodipodi:namedview
   id="namedview41"
   pagecolor="#ffffff"
   bordercolor="#666666"
   borderopacity="1.0"
   inkscape:pageshadow="2"
   inkscape:pageopacity="0.0"
   inkscape:pagecheckerboard="0"
   showgrid="false"
   inkscape:zoom="4.5510204"
   inkscape:cx="46.912556"
   inkscape:cy="11.096413"
   inkscape:window-width="1920"
   inkscape:window-height="1016"
   inkscape:window-x="0"
   inkscape:window-y="27"
   inkscape:window-maximized="1"
   inkscape:current-layer="Warstwa_1"
   width="95px"
   fit-margin-top="0"
   fit-margin-left="0"
   fit-margin-right="0"
   fit-margin-bottom="0" />
<style
   type="text/css"
   id="style2">
	.st0{fill:#878787;}
	.st1{fill:#5A9E33;}
	.st2{fill:url(#SVGID_1_);}
	.st3{fill:url(#SVGID_00000065044133299419642800000008049885483574451335_);}
</style>
<g
   id="g38"
   transform="matrix(0.33515223,0,0,0.33515223,-1.9438829,-1.7427915)">
	<path
   class="st0"
   d="m 5.8,43.5 c 0,-8.9 5.3,-14.1 15.5,-14.1 8.1,0 13,3.3 15,9.9 0.2,0.6 0,1 -0.5,1.2 l -1.2,0.4 c -0.6,0.2 -0.9,0 -1.2,-0.6 -1.7,-5.7 -5.2,-8.2 -12.2,-8.2 -8.1,0 -12.3,4.1 -12.3,11.1 v 11.3 c 0,7 4.4,11.2 12.3,11.2 6.9,0 10.7,-2.8 12.3,-8.6 0.2,-0.6 0.6,-0.8 1.2,-0.6 l 1.3,0.4 c 0.6,0.2 0.7,0.6 0.5,1.2 -2.1,7 -7.3,10.5 -15.3,10.5 -9.9,0 -15.3,-5.2 -15.3,-14.1 z"
   id="path4" />
	<path
   class="st0"
   d="m 39.5,42.2 c 0,-7.8 6,-12.8 15.5,-12.8 9.6,0 15.6,4.9 15.6,12.8 V 56 c 0,7.8 -6,12.7 -15.6,12.7 -9.5,0 -15.5,-4.9 -15.5,-12.7 z m 28,0 c 0,-6.1 -4.9,-9.9 -12.5,-9.9 -7.5,0 -12.4,3.9 -12.4,9.9 V 56 c 0,6 4.9,9.9 12.4,9.9 7.5,0 12.5,-3.8 12.5,-9.9 z"
   id="path6" />
	<path
   class="st0"
   d="m 112.3,29.4 c 8.5,0 12.8,4.5 12.8,13.5 v 23.9 c 0,0.6 -0.3,0.9 -0.9,0.9 h -1.4 c -0.6,0 -0.9,-0.3 -0.9,-0.9 V 43.1 c 0,-7.3 -3.1,-10.8 -10,-10.8 -3.9,0 -7.7,1 -11.3,3 1.2,2 1.7,4.5 1.7,7.6 v 23.9 c 0,0.6 -0.3,0.9 -0.9,0.9 H 100 c -0.6,0 -0.9,-0.3 -0.9,-0.9 V 43.1 c 0,-7.2 -3.4,-10.8 -10.3,-10.8 -3.2,0 -6,0.6 -8.5,1.7 -1,0.5 -1.5,1.3 -1.5,2.5 v 30.2 c 0,0.6 -0.3,0.9 -0.8,0.9 h -1.4 c -0.6,0 -0.9,-0.3 -0.9,-0.9 v -31 c 0,-2.2 0.6,-3.1 2.8,-4.1 3.3,-1.5 6.9,-2.2 10.8,-2.2 4.3,0 7.5,1.2 9.7,3.5 4.1,-2.3 8.5,-3.5 13.3,-3.5 z"
   id="path8" />
	<path
   class="st1"
   d="m 162.2,14 c 1.4,0 1.7,0.4 1.7,1.7 v 2.5 c 0,1.4 -0.4,1.8 -1.7,1.8 h -12.1 c -6.9,0 -9.4,2.4 -9.4,8.9 v 1.4 h 21.4 c 1.4,0 1.7,0.4 1.7,1.7 v 34 c 0,1.4 -0.4,1.7 -1.7,1.7 H 159 c -1.4,0 -1.7,-0.4 -1.7,-1.7 V 36.3 H 140.7 V 66 c 0,1.4 -0.4,1.7 -1.8,1.7 H 136 c -1.4,0 -1.8,-0.4 -1.8,-1.7 V 36.3 h -5.5 c -1.2,0 -1.7,-0.5 -1.7,-1.7 V 32 c 0,-1.2 0.4,-1.7 1.7,-1.7 h 5.5 v -1.4 c 0,-10.4 4.9,-14.9 15.9,-14.9 z"
   id="path10" />
	<path
   class="st1"
   d="m 185.9,29.2 c 9.8,0 14.7,4.8 14.7,14.4 V 66 c 0,1.4 -0.5,1.7 -1.7,1.7 h -3 c -1.2,0 -1.7,-0.4 -1.7,-1.7 V 43.8 c 0,-5.7 -3,-8.6 -9.1,-8.6 -2.9,0 -5.7,0.4 -8.4,1.3 -0.6,0.2 -0.9,0.6 -0.9,1.3 V 66 c 0,1.4 -0.4,1.7 -1.7,1.7 H 171 c -1.2,0 -1.7,-0.5 -1.7,-1.7 V 35.7 c 0,-2.3 0.5,-3.1 2.8,-4.1 3.9,-1.6 8.5,-2.4 13.8,-2.4 z"
   id="path12" />
	<path
   class="st1"
   d="m 204.5,43.1 c 0,-8.7 6.1,-13.9 16.3,-13.9 10.4,0 16.3,5.2 16.3,13.9 v 11.8 c 0,8.6 -6,13.9 -16.3,13.9 -10.2,0 -16.3,-5.2 -16.3,-13.9 z M 230.7,43 c 0,-5 -3.7,-8 -9.9,-8 -6.1,0 -9.8,3 -9.8,8 v 11.9 c 0,5 3.7,8 9.8,8 6.2,0 9.9,-3 9.9,-8 z"
   id="path14" />
	
		<linearGradient
   id="SVGID_1_"
   gradientUnits="userSpaceOnUse"
   x1="286.3804"
   y1="29.329901"
   x2="267.5062"
   y2="57.972401"
   gradientTransform="matrix(1,0,0,-1,-0.8883,84.1859)">
		<stop
   offset="0"
   style="stop-color:#DEDC00"
   id="stop16" />
		<stop
   offset="0.2151"
   style="stop-color:#95C11F"
   id="stop18" />
		<stop
   offset="1"
   style="stop-color:#00663A"
   id="stop20" />
	</linearGradient>
	<path
   class="st2"
   d="m 288.1,39 c 1,0 1.4,0.7 1,1.6 l -4.4,8.6 c -0.3,0.6 -1.1,1.1 -1.8,1.1 h -5.1 c -3.4,0 -6.5,-0.9 -9.2,-2.5 -3.6,-2.4 -6,-6 -6,-10.1 0,-7.1 6.5,-12.9 15.2,-12.9 -3.9,0 -7.1,3.2 -7.1,7.1 0,3.9 3.2,7.1 7.1,7.1 z"
   id="path23"
   style="fill:url(#SVGID_1_)" />
	
		<linearGradient
   id="SVGID_00000127730724505922006500000015773728883974292414_"
   gradientUnits="userSpaceOnUse"
   x1="264.70139"
   y1="47.863602"
   x2="301.8663"
   y2="86.837799"
   gradientTransform="matrix(1,0,0,-1,-0.8883,84.1859)">
		<stop
   offset="0"
   style="stop-color:#DEDC00"
   id="stop25" />
		<stop
   offset="0.2151"
   style="stop-color:#95C11F"
   id="stop27" />
		<stop
   offset="0.4162"
   style="stop-color:#5A9E33"
   id="stop29" />
		<stop
   offset="1"
   style="stop-color:#5A9E33"
   id="stop31" />
	</linearGradient>
	<path
   style="fill:url(#SVGID_00000127730724505922006500000015773728883974292414_)"
   d="m 259.4,31.9 c 0,-10.2 8.3,-18.4 18.4,-18.4 h 10.3 c 1,0 1.4,0.7 1,1.6 l -4.4,8.6 c -0.3,0.6 -1.1,1.1 -1.8,1.1 h -5.1 c -8.6,0 -15.2,5.8 -15.2,12.9 0,4.1 2.3,7.8 6,10.1 -5.5,-3.1 -9.2,-9.1 -9.2,-15.9 z"
   id="path34" />
	<rect
   x="249.7"
   y="5.1999998"
   class="st0"
   width="1"
   height="52.200001"
   id="rect36" />
</g>
</svg>
